<?xml version="1.0" encoding="utf-8"?>
<!-- Generator: Adobe Illustrator 19.0.0, SVG Export Plug-In . SVG Version: 6.00 Build 0)  -->
<svg version="1.1" id="Layer_1" xmlns="http://www.w3.org/2000/svg" xmlns:xlink="http://www.w3.org/1999/xlink" x="0px" y="0px"
	 viewBox="0 0 689.3 190.2" style="enable-background:new 0 0 689.3 190.2;" xml:space="preserve">
<style type="text/css">
	.st0{fill:#FFFFFF;}
</style>
<g>
	<polyline class="st0" points="308.4,103.6 340.6,103.6 340.6,77.8 355.1,77.8 355.1,141.5 340.6,141.5 340.6,114.9 308.4,114.9 
		308.4,141.5 293.9,141.5 293.9,77.8 308.4,77.8 308.4,103.6 	"/>
	<path class="st0" d="M381.4,116c0,11.2,3.6,15.9,15.5,15.9c12,0,15.5-4.7,15.5-15.9V77.8h14.5v38.5c0,8.2-1,13.7-4.1,17.1
		c-5.6,6.2-13.9,8.8-25.9,8.8c-12,0-20.3-2.6-26-8.8c-3.2-3.4-3.9-9-3.9-17.1V77.8h14.4V116"/>
	<path class="st0" d="M455.9,115h20.6L466,90.5L455.9,115 M474.2,77.8l29.4,63.7h-16.1l-6.3-15.1h-29.9l-6.2,15.1h-15.3l29.1-63.7
		H474.2z"/>
	<polyline class="st0" points="510.2,77.8 526.1,126.7 539.5,77.8 556.6,77.8 572.1,126.7 586.9,77.8 601.8,77.8 580.5,141.5 
		562.7,141.5 548,94 535.2,141.5 517.5,141.5 494.6,77.8 510.2,77.8 	"/>
	<path class="st0" d="M621.3,103.7h40v11.1h-40.2c0.1,11.5,5,15.6,16.4,15.6h23.8v11.1h-24.5c-8.3,0-14.8-0.6-21.5-5.6
		c-7.1-5.2-10.5-13.5-10.5-25.1c0-22.5,10.3-33,32.4-33h24.1v11.1h-23.8C627.1,88.9,621.9,93.7,621.3,103.7"/>
	<rect x="674.1" y="77.8" class="st0" width="15.1" height="63.7"/>
</g>
<path class="st0" d="M108.5,148.3c0,0,0.4-0.3,0.2-0.9h0C79.1,82.6,38.6,33.5,38.6,33.5S16.5,54.5,18.1,75.4
	c0.8,15.9,12.8,25.3,12.8,25.3c19.2,18.8,65.8,42.4,76.6,47.8C107.6,148.6,108.2,148.8,108.5,148.3"/>
<path class="st0" d="M101.3,164.4c-0.2-0.7-1-0.7-1-0.7v0l-77.5,2.7c8.4,15,22.6,26.7,37.3,23.1c10.2-2.5,33.2-18.6,40.8-24.1l0,0
	C101.5,164.8,101.3,164.4,101.3,164.4"/>
<path class="st0" d="M102.5,157.4c0.4-0.6-0.3-1.1-0.3-1.1l0,0c-34-23-100-58.3-100-58.3c-6,18.6,2.1,33.5,2.1,33.5
	c8.4,17.8,24.4,23.2,24.4,23.2c7.4,3.1,14.8,3.3,14.8,3.3c1.2,0.2,46.1,0,58.1,0C102.2,157.9,102.5,157.4,102.5,157.4"/>
<path class="st0" d="M107.6,0c-3.4,0.3-12.5,2.4-12.5,2.4C74.6,7.7,69.8,26.3,69.8,26.3c-3.8,11.7,0.1,24.6,0.1,24.6
	c6.8,30.4,40.5,80.4,47.8,90.9c0.5,0.5,0.9,0.3,0.9,0.3c0.8-0.2,0.7-1,0.7-1C130.5,29.6,107.6,0,107.6,0"/>
<path class="st0" d="M133.3,142.1c0.7,0.3,1.1-0.4,1.1-0.4h0c7.4-10.8,40.9-60.5,47.7-90.8c0,0,3.7-14.7,0.1-24.6
	c0,0-5.1-18.9-25.6-23.9c0,0-5.9-1.5-12.2-2.4c0,0-23,29.6-11.8,141.3h0C132.8,142,133.3,142.1,133.3,142.1"/>
<path class="st0" d="M151.7,163.7c0,0-0.7,0.1-0.9,0.6c0,0-0.2,0.7,0.3,1v0c7.4,5.3,29.9,21.1,40.7,24.1c0,0,20,6.8,37.4-23.1
	L151.7,163.7L151.7,163.7"/>
<path class="st0" d="M249.9,97.8c0,0-65.9,35.4-99.9,58.4l0,0c0,0-0.6,0.4-0.4,1.1c0,0,0.3,0.6,0.8,0.6v0c12.2,0,58.4,0.1,59.5-0.1
	c0,0,6-0.2,13.3-3.1c0,0,16.4-5.2,25-23.9C248.1,130.8,255.7,115.6,249.9,97.8"/>
<path class="st0" d="M143.7,148.3c0,0,0.5,0.4,1,0.1c11.1-5.5,57.3-29,76.4-47.7c0,0,12.1-9.7,12.7-25.4
	c1.4-21.7-20.4-41.8-20.4-41.8s-40.4,48.9-70,113.6h0C143.5,147.1,143.1,147.9,143.7,148.3"/>
</svg>
