<?xml version="1.0" standalone="no"?><!DOCTYPE svg PUBLIC "-//W3C//DTD SVG 1.1//EN" "http://www.w3.org/Graphics/SVG/1.1/DTD/svg11.dtd"><svg t="1547175441038" class="icon" style="" viewBox="0 0 1109 1024" version="1.1" xmlns="http://www.w3.org/2000/svg" p-id="4182" xmlns:xlink="http://www.w3.org/1999/xlink" width="200" height="200"><defs><style type="text/css"></style></defs><path d="M573.354667 1024a512 512 0 1 1 0-1024 512 512 0 0 1 0 1024zM390.997333 254.890667a325.632 325.632 0 1 0 365.141334 0.341333 42.666667 42.666667 0 0 0-47.957334 70.570667 240.298667 240.298667 0 1 1-269.312-0.256 42.666667 42.666667 0 0 0-47.786666-70.656zM616.106667 439.125333v-297.813333a42.666667 42.666667 0 1 0-85.333334 0v297.813333a42.666667 42.666667 0 1 0 85.333334 0z" fill="#1296db" p-id="4183"></path></svg>